<?xml version="1.0" encoding="UTF-8"?>
<svg width="147px" height="31px" viewBox="0 0 147 31" version="1.1" xmlns="http://www.w3.org/2000/svg" xmlns:xlink="http://www.w3.org/1999/xlink">
    <!-- Generator: Sketch 44.1 (41455) - http://www.bohemiancoding.com/sketch -->
    <title>logo</title>
    <desc>Created with Sketch.</desc>
    <defs>
        <path d="M19.8218188,10.0960748 C19.8218194,8.52707658 19.2777898,6.95754022 18.1912195,5.70292683 C17.7053659,10.9404878 15.1482927,13.6770732 15.02,13.8102439 L15.017561,13.8073171 C13.8673171,15.3829268 12.0121951,16.4107317 9.91268293,16.4107317 C6.4204878,16.4107317 3.58926829,13.5795122 3.58926829,10.0873171 C3.58926829,6.59512195 6.4204878,3.76390244 9.91268293,3.76390244 C13.3234146,3.76390244 16.0960976,6.46682927 16.2239024,9.84634146 C16.742439,8.53121951 17.1819512,6.82682927 17.2760976,4.75365854 L14.6526829,2.1297561 C13.3487805,0.826341463 11.6307317,0.174634146 9.91268293,0.174634146 C8.19463415,0.174634146 6.47658537,0.826341463 5.17317073,2.1297561 L1.95512195,5.34731707 C-0.651707317,7.95463415 -0.651707317,12.22 1.95512195,14.8268293 L5.17317073,18.044878 C7.78,20.6517073 12.0453659,20.6517073 14.6526829,18.044878 L17.8702439,14.8268293 C19.1719414,13.5251317 19.821818,11.8109247 19.8218188,10.0960748 L19.8218188,10.096068 L19.8218188,10.0960748 Z" id="path-1"></path>
        <polygon id="path-3" points="0 20 131.744578 20 131.744578 0.174634146 0 0.174634146"></polygon>
        <linearGradient x1="50%" y1="3.86041135%" x2="50%" y2="100%" id="linearGradient-5">
            <stop stop-color="#58399C" offset="0%"></stop>
            <stop stop-color="#1F61B2" offset="100%"></stop>
        </linearGradient>
    </defs>
    <g id="Page-1" stroke="none" stroke-width="1" fill="none" fill-rule="evenodd">
        <g transform="translate(15.000000, 5.000000)">
            <g id="Group-13" transform="translate(3.000000, 4.000000)">
                <path d="M41.416206,1.13824286 C40.9730517,0.848528571 40.4546087,0.5746 39.8608772,0.456207143 C39.2661926,0.338278571 38.6357698,0.208742857 37.9686557,0.208742857 L33.2107027,0.208742857 L33.2107027,12.7444571 L36.0697631,12.7444571 L36.0697631,8.00688571 L36.0697631,5.66735 L36.0697631,2.53017143 L37.1023604,2.53017143 L37.4773738,2.53017143 C37.743743,2.53017143 38.0229779,2.62488571 38.3141255,2.65367143 C38.6052732,2.68385 38.8692597,2.7911 39.1056087,2.89742143 C39.3419577,3.00374286 39.5358973,3.1746 39.687904,3.3696 C39.8394342,3.5646 39.9151993,3.83156429 39.9151993,4.15052857 C39.9151993,4.44581429 39.8575416,4.69606429 39.7422262,4.89106429 C39.6269107,5.08606429 39.4753805,5.24206429 39.2876356,5.35488571 C39.0994141,5.46724286 38.8873671,5.60420714 38.6510181,5.6511 C38.4141926,5.69892143 38.1687899,5.78017143 37.913857,5.78017143 L37.0227832,5.78017143 L37.0227832,8.1016 L38.0958839,8.1016 C38.7753872,8.1016 39.4058101,7.99249286 39.9881054,7.86852857 C40.5704007,7.7441 41.0735953,7.51102857 41.4981658,7.21527857 C41.9222597,6.91999286 42.2558168,6.51188571 42.4983604,6.01602857 C42.7413805,5.51970714 42.8624141,4.89942143 42.8624141,4.16677857 C42.8624141,3.4216 42.7323268,2.80177857 42.4711993,2.31102857 C42.2105483,1.82074286 41.8588839,1.42795714 41.416206,1.13824286" id="Fill-1" fill="#333333"></path>
                <path d="M69.5303,1.13824286 C69.0871456,0.848528571 68.5687027,0.5746 67.9749711,0.456207143 C67.3802866,0.338278571 66.7498638,0.208742857 66.0827497,0.208742857 L61.3247966,0.208742857 L61.3247966,12.7444571 L64.183857,12.7444571 L64.183857,8.00688571 L64.183857,5.66735 L64.183857,2.53017143 L65.2164544,2.53017143 L65.5914678,2.53017143 C65.8578369,2.53017143 66.1370718,2.62488571 66.4282195,2.65367143 C66.7193671,2.68385 66.9833537,2.7911 67.2197027,2.89742143 C67.4560517,3.00374286 67.6499913,3.1746 67.801998,3.3696 C67.9535282,3.5646 68.0292933,3.83156429 68.0292933,4.15052857 C68.0292933,4.44581429 67.9716356,4.69606429 67.8563201,4.89106429 C67.7410047,5.08606429 67.5894745,5.24206429 67.4017295,5.35488571 C67.2135081,5.46724286 67.0014611,5.60420714 66.7651121,5.6511 C66.5282866,5.69892143 66.2828839,5.78017143 66.027951,5.78017143 L65.1368772,5.78017143 L65.1368772,8.1016 L66.2099779,8.1016 C66.8894812,8.1016 67.519904,7.99249286 68.1021993,7.86852857 C68.6844946,7.7441 69.1876893,7.51102857 69.6122597,7.21527857 C70.0363537,6.91999286 70.3699107,6.51188571 70.6124544,6.01602857 C70.8554745,5.51970714 70.9765081,4.89942143 70.9765081,4.16677857 C70.9765081,3.4216 70.8464208,2.80177857 70.5852933,2.31102857 C70.3246423,1.82074286 69.9729779,1.42795714 69.5303,1.13824286" id="Fill-3" fill="#333333"></path>
                <polygon id="Fill-5" fill="#333333" points="51.5767349 8.56593214 51.5405201 8.56593214 48.5747215 0.208789286 44.1708154 0.208789286 44.1708154 12.7445036 47.0298758 12.7445036 47.0298758 3.45878929 47.1556745 3.45878929 50.4126208 12.7445036 52.577406 12.7445036 55.961104 3.45878929 56.0835671 3.45878929 56.0835671 12.7445036 58.9426275 12.7445036 58.9426275 0.208789286 54.5606409 0.208789286"></polygon>
                <path d="M12.5084416,6.68399643 C12.4964416,6.85399643 12.4864416,6.98649643 12.4799416,7.07349643 C12.4949416,6.94499643 12.5014416,6.81449643 12.5084416,6.68399643" id="Fill-7" fill="#FFFFFF"></path>
                <path d="M11.7356805,3.41310357 C10.6783047,1.575925 8.66314362,0.332567857 6.34778121,0.332567857 C2.93644564,0.332567857 0.170781208,3.02728214 0.170781208,6.35110357 C0.170781208,9.674925 2.93644564,12.369175 6.34778121,12.369175 C9.47892886,12.369175 12.0597074,10.0964964 12.4633114,7.152925 L11.521251,7.08003214 C11.5236336,7.04799643 11.6494322,5.47824643 11.7356805,3.41310357" id="Fill-9" fill="#FFFFFF"></path>
                <path d="M12.4718591,7.16186071 C12.4733591,7.14536071 12.4763591,7.10436071 12.4808591,7.04586071 C12.4763591,7.08436071 12.4683591,7.12236071 12.4633591,7.16136071 L12.4718591,7.16186071 Z" id="Fill-11" fill="#FFFFFF"></path>
            </g>
            <g id="Group-16">
                <mask id="mask-2" fill="white">
                    <use xlink:href="#path-1"></use>
                </mask>
                <g id="Clip-15"></g>
                <path d="M5.17317073,2.1297561 L1.95512195,5.34731707 C-0.651707317,7.95463415 -0.651707317,12.22 1.95512195,14.8268293 L1.95512195,14.8268293 L5.17317073,18.044878 C7.78,20.6517073 12.0453659,20.6517073 14.6526829,18.044878 L14.6526829,18.044878 L17.8702439,14.8268293 C20.3629268,12.3341463 20.4653659,8.32878049 18.1912195,5.70292683 L18.1912195,5.70292683 C17.7053659,10.9404878 15.1482927,13.6770732 15.02,13.8102439 L15.02,13.8102439 L15.017561,13.8073171 C13.8673171,15.3829268 12.0121951,16.4107317 9.91268293,16.4107317 L9.91268293,16.4107317 C6.4204878,16.4107317 3.58926829,13.5795122 3.58926829,10.0873171 L3.58926829,10.0873171 C3.58926829,6.59512195 6.4204878,3.76390244 9.91268293,3.76390244 L9.91268293,3.76390244 C13.3234146,3.76390244 16.0960976,6.46682927 16.2239024,9.84634146 L16.2239024,9.84634146 C16.742439,8.53121951 17.1819512,6.82682927 17.2760976,4.75365854 L17.2760976,4.75365854 L14.6526829,2.1297561 C13.3487805,0.826341463 11.6307317,0.174634146 9.91268293,0.174634146 L9.91268293,0.174634146 C8.19463415,0.174634146 6.47658537,0.826341463 5.17317073,2.1297561" id="Fill-14" mask="url(#mask-2)"></path>
            </g>
            <g id="Group-62">
                <polygon id="Fill-17" fill="#58595B" points="80.0636231 8.31882927 80.0636231 4.15834146 78.6173415 4.15834146 78.6173415 3.63931707 82.0855581 3.63931707 82.0855581 4.15834146 80.6321285 4.15834146 80.6321285 8.31882927"></polygon>
                <path d="M82.2363812,8.31882927 L82.2363812,4.93004878 L82.7505617,4.93004878 L82.7505617,5.47004878 C83.0178975,5.11931707 83.4015076,4.85297561 83.8542152,4.85297561 L83.8542152,5.39297561 C83.7922657,5.38614634 83.7307928,5.37931707 83.6550238,5.37931707 C83.3328866,5.37931707 82.9011466,5.64565854 82.7505617,5.91931707 L82.7505617,8.31882927 L82.2363812,8.31882927 Z" id="Fill-19" fill="#58595B"></path>
                <path d="M86.568078,7.60321951 L86.568078,6.95785366 C86.3693632,6.68419512 86.019587,6.54370732 85.6631394,6.54370732 C85.1765978,6.54370732 84.8411177,6.8524878 84.8411177,7.28029268 C84.8411177,7.71541463 85.1765978,8.02419512 85.6631394,8.02419512 C86.019587,8.02419512 86.3693632,7.88370732 86.568078,7.60321951 L86.568078,7.60321951 Z M86.568078,8.31882927 L86.568078,7.93297561 C86.3007422,8.2417561 85.9171321,8.40321951 85.4715726,8.40321951 C84.9164101,8.40321951 84.3197892,8.01687805 84.3197892,7.28029268 C84.3197892,6.51541463 84.9092621,6.16468293 85.4715726,6.16468293 C85.9238036,6.16468293 86.3007422,6.312 86.568078,6.62078049 L86.568078,6.01053659 C86.568078,5.5617561 86.2116303,5.3017561 85.7317603,5.3017561 C85.3343307,5.3017561 85.0121935,5.4422439 84.7176953,5.772 L84.477522,5.40712195 C84.8339697,5.02809756 85.2590383,4.84565854 85.8003812,4.84565854 C86.5061285,4.84565854 87.0822585,5.16858537 87.0822585,5.98956098 L87.0822585,8.31882927 L86.568078,8.31882927 Z" id="Fill-21" fill="#58595B"></path>
                <path d="M90.3585271,8.31882927 L90.3585271,6.1017561 C90.3585271,5.49834146 90.0568809,5.31590244 89.6113213,5.31590244 C89.2067437,5.31590244 88.8302816,5.56858537 88.6310903,5.8422439 L88.6310903,8.31882927 L88.1173863,8.31882927 L88.1173863,4.93004878 L88.6310903,4.93004878 L88.6310903,5.42126829 C88.8641155,5.13346341 89.3168231,4.84565854 89.8171841,4.84565854 C90.5024404,4.84565854 90.8655596,5.20370732 90.8655596,5.94029268 L90.8655596,8.31882927 L90.3585271,8.31882927 Z" id="Fill-23" fill="#58595B"></path>
                <path d="M91.6196274,7.8697561 L91.8802917,7.49073171 C92.0994975,7.75073171 92.5178946,7.97512195 92.9701256,7.97512195 C93.4771581,7.97512195 93.7583134,7.7297561 93.7583134,7.39268293 C93.7583134,6.57170732 91.7087394,7.07707317 91.7087394,5.82097561 C91.7087394,5.28780488 92.1476274,4.84585366 92.9358152,4.84585366 C93.5047971,4.84585366 93.9022267,5.06341463 94.1624144,5.33707317 L93.9227177,5.70195122 C93.7240029,5.45609756 93.3675552,5.27365854 92.9358152,5.27365854 C92.4831076,5.27365854 92.2024289,5.50536585 92.2024289,5.80682927 C92.2024289,6.54341463 94.2515264,6.0595122 94.2515264,7.37853659 C94.2515264,7.94682927 93.8064433,8.40292683 92.9563061,8.40292683 C92.4078152,8.40292683 91.9555841,8.22780488 91.6196274,7.8697561" id="Fill-25" fill="#58595B"></path>
                <path d="M95.2319957,8.31882927 L95.2319957,5.39297561 L94.6839812,5.39297561 L94.6839812,4.93004878 L95.2319957,4.93004878 L95.2319957,4.67053659 C95.2319957,3.97590244 95.6089343,3.56858537 96.1917357,3.56858537 C96.4590715,3.56858537 96.6849487,3.632 96.8908116,3.82858537 L96.6782773,4.16517073 C96.5686744,4.06712195 96.4385805,4.00370732 96.2736996,4.00370732 C95.9310715,4.00370732 95.7461762,4.23541463 95.7461762,4.67053659 L95.7461762,4.93004878 L96.417613,4.93004878 L96.417613,5.39297561 L95.7461762,5.39297561 L95.7461762,8.31882927 L95.2319957,8.31882927 Z" id="Fill-27" fill="#58595B"></path>
                <path d="M99.5775596,6.62087805 C99.5775596,5.93356098 99.1868014,5.316 98.4810542,5.316 C97.7748303,5.316 97.3840722,5.93356098 97.3840722,6.62087805 C97.3840722,7.3155122 97.7748303,7.93258537 98.4810542,7.93258537 C99.1868014,7.93258537 99.5775596,7.3155122 99.5775596,6.62087805 M96.8427292,6.62087805 C96.8427292,5.63843902 97.4731841,4.8457561 98.4810542,4.8457561 C99.4884477,4.8457561 100.118903,5.63843902 100.118903,6.62087805 C100.118903,7.60331707 99.4884477,8.40331707 98.4810542,8.40331707 C97.4731841,8.40331707 96.8427292,7.60331707 96.8427292,6.62087805" id="Fill-29" fill="#58595B"></path>
                <path d="M100.955363,8.31882927 L100.955363,4.93004878 L101.469544,4.93004878 L101.469544,5.47004878 C101.736879,5.11931707 102.12049,4.85297561 102.573197,4.85297561 L102.573197,5.39297561 C102.511248,5.38614634 102.449775,5.37931707 102.374006,5.37931707 C102.051869,5.37931707 101.620129,5.64565854 101.469544,5.91931707 L101.469544,8.31882927 L100.955363,8.31882927 Z" id="Fill-31" fill="#58595B"></path>
                <path d="M107.213069,8.31882927 L107.213069,6.01736585 C107.213069,5.58956098 107.034845,5.31590244 106.603105,5.31590244 C106.260477,5.31590244 105.896881,5.5617561 105.725805,5.83541463 L105.725805,8.31882927 L105.211625,8.31882927 L105.211625,6.01736585 C105.211625,5.58956098 105.040072,5.31590244 104.601661,5.31590244 C104.265704,5.31590244 103.909733,5.56858537 103.731032,5.8422439 L103.731032,8.31882927 L103.217329,8.31882927 L103.217329,4.93004878 L103.731032,4.93004878 L103.731032,5.42126829 C103.874946,5.20370732 104.313834,4.84565854 104.807523,4.84565854 C105.307408,4.84565854 105.595235,5.12663415 105.691495,5.47736585 C105.87639,5.16858537 106.321949,4.84565854 106.801819,4.84565854 C107.405112,4.84565854 107.727249,5.18956098 107.727249,5.87004878 L107.727249,8.31882927 L107.213069,8.31882927 Z" id="Fill-33" fill="#58595B"></path>
                <path d="M110.825437,7.60321951 L110.825437,6.95785366 C110.626722,6.68419512 110.276946,6.54370732 109.920498,6.54370732 C109.433957,6.54370732 109.098,6.8524878 109.098,7.28029268 C109.098,7.71541463 109.433957,8.02419512 109.920498,8.02419512 C110.276946,8.02419512 110.626722,7.88370732 110.825437,7.60321951 L110.825437,7.60321951 Z M110.825437,8.31882927 L110.825437,7.93297561 C110.558101,8.2417561 110.174491,8.40321951 109.728931,8.40321951 C109.173769,8.40321951 108.577148,8.01687805 108.577148,7.28029268 C108.577148,6.51541463 109.166621,6.16468293 109.728931,6.16468293 C110.181162,6.16468293 110.558101,6.312 110.825437,6.62078049 L110.825437,6.01053659 C110.825437,5.5617561 110.468989,5.3017561 109.989119,5.3017561 C109.59169,5.3017561 109.269552,5.4422439 108.975054,5.772 L108.734881,5.40712195 C109.091329,5.02809756 109.516397,4.84565854 110.05774,4.84565854 C110.763964,4.84565854 111.339617,5.16858537 111.339617,5.98956098 L111.339617,8.31882927 L110.825437,8.31882927 Z" id="Fill-35" fill="#58595B"></path>
                <path d="M113.155975,9.43429268 L113.286069,9.16795122 C113.457622,9.30795122 113.649665,9.37136585 113.83456,9.37136585 C114.060914,9.37136585 114.252481,9.266 114.252481,9.07673171 C114.252481,8.92941463 114.170517,8.83087805 113.998965,8.83087805 C113.903181,8.83087805 113.80025,8.87331707 113.738777,8.95039024 L113.512423,8.81673171 L113.663008,8.38892683 C112.772365,8.31185366 112.182892,7.56795122 112.182892,6.62063415 C112.182892,5.61770732 112.847181,4.8455122 113.83456,4.8455122 C114.437376,4.8455122 114.7943,5.09819512 115.047817,5.43526829 L114.704712,5.75087805 C114.485506,5.44209756 114.204827,5.3157561 113.861723,5.3157561 C113.163123,5.3157561 112.717087,5.86990244 112.717087,6.62063415 C112.717087,7.37136585 113.163123,7.93282927 113.861723,7.93282927 C114.204827,7.93282927 114.485506,7.79234146 114.704712,7.49087805 L115.047817,7.81380488 C114.814791,8.12941463 114.485506,8.36063415 113.964654,8.3957561 L113.855051,8.69039024 C113.923672,8.63429268 114.019456,8.61331707 114.108568,8.61331707 C114.369232,8.61331707 114.560799,8.7957561 114.560799,9.08356098 C114.560799,9.42746341 114.245809,9.64502439 113.847903,9.64502439 C113.553405,9.64502439 113.292741,9.5464878 113.155975,9.43429268" id="Fill-37" fill="#58595B"></path>
                <path d="M117.844263,7.60321951 L117.844263,6.95785366 C117.645548,6.68419512 117.295772,6.54370732 116.939324,6.54370732 C116.452783,6.54370732 116.117303,6.8524878 116.117303,7.28029268 C116.117303,7.71541463 116.452783,8.02419512 116.939324,8.02419512 C117.295772,8.02419512 117.645548,7.88370732 117.844263,7.60321951 L117.844263,7.60321951 Z M116.644826,3.78663415 C116.459931,3.78663415 116.316017,3.96858537 116.316017,4.38956098 L116.007223,4.38956098 C116.007223,3.8422439 116.240248,3.44956098 116.671988,3.44956098 C117.165678,3.44956098 117.186169,4.09492683 117.514978,4.09492683 C117.700349,4.09492683 117.844263,3.9124878 117.844263,3.4915122 L118.152581,3.4915122 C118.152581,4.03882927 117.919555,4.432 117.487815,4.432 C116.994602,4.432 116.973635,3.78663415 116.644826,3.78663415 L116.644826,3.78663415 Z M117.844263,8.31882927 L117.844263,7.93297561 C117.576927,8.2417561 117.193317,8.40321951 116.747757,8.40321951 C116.192595,8.40321951 115.595974,8.01687805 115.595974,7.28029268 C115.595974,6.51541463 116.185447,6.16468293 116.747757,6.16468293 C117.199988,6.16468293 117.576927,6.312 117.844263,6.62078049 L117.844263,6.01053659 C117.844263,5.5617561 117.487815,5.3017561 117.007945,5.3017561 C116.610516,5.3017561 116.288378,5.4422439 115.99388,5.772 L115.753707,5.40712195 C116.110155,5.02809756 116.535223,4.84565854 117.076566,4.84565854 C117.782313,4.84565854 118.358443,5.16858537 118.358443,5.98956098 L118.358443,8.31882927 L117.844263,8.31882927 Z" id="Fill-39" fill="#58595B"></path>
                <path d="M121.936358,6.62087805 C121.936358,5.93356098 121.5456,5.316 120.839853,5.316 C120.133629,5.316 119.742871,5.93356098 119.742871,6.62087805 C119.742871,7.3155122 120.133629,7.93258537 120.839853,7.93258537 C121.5456,7.93258537 121.936358,7.3155122 121.936358,6.62087805 M119.201528,6.62087805 C119.201528,5.63843902 119.831983,4.8457561 120.839853,4.8457561 C121.847246,4.8457561 122.477701,5.63843902 122.477701,6.62087805 C122.477701,7.60331707 121.847246,8.40331707 120.839853,8.40331707 C119.831983,8.40331707 119.201528,7.60331707 119.201528,6.62087805" id="Fill-41" fill="#58595B"></path>
                <path d="M82.2500101,14.4022439 C82.2500101,13.392 81.6262267,12.5778537 80.4954108,12.5778537 L79.5013603,12.5778537 L79.5013603,16.2193171 L80.4954108,16.2193171 C81.6057357,16.2193171 82.2500101,15.4051707 82.2500101,14.4022439 L82.2500101,14.4022439 Z M78.9323783,16.7383415 L78.9323783,12.0588293 L80.4954108,12.0588293 C81.9207249,12.0588293 82.839483,13.0763902 82.839483,14.4022439 C82.839483,15.7354146 81.9207249,16.7383415 80.4954108,16.7383415 L78.9323783,16.7383415 Z" id="Fill-43" fill="#58595B"></path>
                <mask id="mask-4" fill="white">
                    <use xlink:href="#path-3"></use>
                </mask>
                <g id="Clip-46"></g>
                <path d="M83.7099206,16.7385366 L84.2241011,16.7385366 L84.2241011,13.3497561 L83.7099206,13.3497561 L83.7099206,16.7385366 Z M83.6212852,12.5146341 C83.6212852,12.3185366 83.7785415,12.1570732 83.9705848,12.1570732 C84.1621516,12.1570732 84.313213,12.3185366 84.313213,12.5146341 C84.313213,12.7112195 84.1621516,12.8653659 83.9705848,12.8653659 C83.7785415,12.8653659 83.6212852,12.7112195 83.6212852,12.5146341 L83.6212852,12.5146341 Z" id="Fill-45" fill="#58595B" mask="url(#mask-4)"></path>
                <path d="M87.6511451,15.7633171 L87.6511451,14.276 C87.4662498,13.9881951 87.0683437,13.7355122 86.6642426,13.7355122 C85.9928058,13.7355122 85.5948996,14.276 85.5948996,15.0267317 C85.5948996,15.7706341 85.9928058,16.3106341 86.6642426,16.3106341 C87.0683437,16.3106341 87.4662498,16.0579512 87.6511451,15.7633171 M85.2456,17.6013659 L85.5057877,17.2228293 C85.7797949,17.5525854 86.1090801,17.678439 86.5818022,17.678439 C87.1302931,17.678439 87.6511451,17.4052683 87.6511451,16.6896585 L87.6511451,16.1774634 C87.4047769,16.5213659 87.0001993,16.7803902 86.5341487,16.7803902 C85.6706686,16.7803902 85.0602282,16.1213659 85.0602282,15.0267317 C85.0602282,13.9389268 85.6635206,13.2657561 86.5341487,13.2657561 C86.9797083,13.2657561 87.3838094,13.4901463 87.6511451,13.8618537 L87.6511451,13.3496585 L88.1653256,13.3496585 L88.1653256,16.6896585 C88.1653256,17.7628293 87.3909574,18.113561 86.5818022,18.113561 C86.0266397,18.113561 85.6430296,18.0013659 85.2456,17.6013659" id="Fill-47" fill="#58595B" mask="url(#mask-4)"></path>
                <path d="M89.1934007,16.7385366 L89.7075812,16.7385366 L89.7075812,13.3497561 L89.1934007,13.3497561 L89.1934007,16.7385366 Z M89.1047653,12.5146341 C89.1047653,12.3185366 89.2620217,12.1570732 89.454065,12.1570732 C89.6461083,12.1570732 89.7966931,12.3185366 89.7966931,12.5146341 C89.7966931,12.7112195 89.6461083,12.8653659 89.454065,12.8653659 C89.2620217,12.8653659 89.1047653,12.7112195 89.1047653,12.5146341 L89.1047653,12.5146341 Z" id="Fill-48" fill="#58595B" mask="url(#mask-4)"></path>
                <path d="M90.838683,16.0298537 L90.838683,13.8127805 L90.2901921,13.8127805 L90.2901921,13.3498537 L90.838683,13.3498537 L90.838683,12.4235122 L91.359535,12.4235122 L91.359535,13.3498537 L92.0314484,13.3498537 L92.0314484,13.8127805 L91.359535,13.8127805 L91.359535,15.9176585 C91.359535,16.1703415 91.4691379,16.3527805 91.6883437,16.3527805 C91.8394051,16.3527805 91.9694989,16.2825366 92.0381199,16.2054634 L92.1887047,16.6049756 C92.0586108,16.7313171 91.8737155,16.8230244 91.5787408,16.8230244 C91.0855278,16.8230244 90.838683,16.5352195 90.838683,16.0298537" id="Fill-49" fill="#58595B" mask="url(#mask-4)"></path>
                <path d="M94.8207942,16.0230244 L94.8207942,15.3776585 C94.6220794,15.104 94.2723032,14.9635122 93.9158556,14.9635122 C93.4293141,14.9635122 93.0933574,15.2722927 93.0933574,15.7000976 C93.0933574,16.1352195 93.4293141,16.444 93.9158556,16.444 C94.2723032,16.444 94.6220794,16.3035122 94.8207942,16.0230244 L94.8207942,16.0230244 Z M94.8207942,16.7386341 L94.8207942,16.3527805 C94.5534585,16.661561 94.1698484,16.8230244 93.7242888,16.8230244 C93.1691264,16.8230244 92.5725054,16.4366829 92.5725054,15.7000976 C92.5725054,14.9352195 93.1619783,14.5844878 93.7242888,14.5844878 C94.1765199,14.5844878 94.5534585,14.7318049 94.8207942,15.0405854 L94.8207942,14.4303415 C94.8207942,13.981561 94.4643466,13.721561 93.9844765,13.721561 C93.5870469,13.721561 93.2649097,13.8620488 92.9704116,14.1918049 L92.7302383,13.8269268 C93.0866859,13.4479024 93.5117545,13.2654634 94.0530975,13.2654634 C94.7593213,13.2654634 95.3349747,13.5883902 95.3349747,14.4093659 L95.3349747,16.7386341 L94.8207942,16.7386341 Z" id="Fill-50" fill="#58595B" mask="url(#mask-4)"></path>
                <polygon id="Fill-51" fill="#58595B" mask="url(#mask-4)" points="96.3700072 16.7385366 96.8841877 16.7385366 96.8841877 12.0590244 96.3700072 12.0590244"></polygon>
                <path d="M101.119768,13.7006341 C100.41402,13.7006341 100.064244,14.310878 100.037082,14.8230732 L102.209601,14.8230732 C102.20293,14.3250244 101.873645,13.7006341 101.119768,13.7006341 M99.4952621,15.0406341 C99.4952621,14.0581951 100.180995,13.2655122 101.126916,13.2655122 C102.127161,13.2655122 102.71711,14.0655122 102.71711,15.0825854 L102.71711,15.2162439 L100.043753,15.2162439 C100.084735,15.8542927 100.516475,16.3879512 101.22937,16.3879512 C101.613457,16.3879512 101.990396,16.2333171 102.257255,15.9528293 L102.5041,16.2967317 C102.168619,16.6333171 101.72306,16.8230732 101.188388,16.8230732 C100.201486,16.8230732 99.4952621,16.1001463 99.4952621,15.0406341" id="Fill-52" fill="#58595B" mask="url(#mask-4)"></path>
                <polygon id="Fill-53" fill="#58595B" mask="url(#mask-4)" points="105.342195 16.7385366 105.911177 16.7385366 105.911177 12.0590244 105.342195 12.0590244"></polygon>
                <path d="M109.200884,16.7385854 L109.200884,14.5215122 C109.200884,13.9180976 108.899238,13.7356585 108.453678,13.7356585 C108.0491,13.7356585 107.672638,13.9883415 107.473447,14.262 L107.473447,16.7385854 L106.959743,16.7385854 L106.959743,13.3498049 L107.473447,13.3498049 L107.473447,13.8410244 C107.706472,13.5532195 108.15918,13.2654146 108.659541,13.2654146 C109.344797,13.2654146 109.707916,13.6234634 109.707916,14.3600488 L109.707916,16.7385854 L109.200884,16.7385854 Z" id="Fill-54" fill="#58595B" mask="url(#mask-4)"></path>
                <path d="M113.286069,15.0406341 C113.286069,14.3533171 112.895311,13.7357561 112.189564,13.7357561 C111.48334,13.7357561 111.092582,14.3533171 111.092582,15.0406341 C111.092582,15.7352683 111.48334,16.3523415 112.189564,16.3523415 C112.895311,16.3523415 113.286069,15.7352683 113.286069,15.0406341 M110.551239,15.0406341 C110.551239,14.0581951 111.181694,13.2655122 112.189564,13.2655122 C113.196957,13.2655122 113.827412,14.0581951 113.827412,15.0406341 C113.827412,16.0230732 113.196957,16.8230732 112.189564,16.8230732 C111.181694,16.8230732 110.551239,16.0230732 110.551239,15.0406341" id="Fill-55" fill="#58595B" mask="url(#mask-4)"></path>
                <polygon id="Fill-56" fill="#58595B" mask="url(#mask-4)" points="115.548082 16.7385854 114.170422 13.3498049 114.732256 13.3498049 115.828761 16.1278537 116.932414 13.3498049 117.487577 13.3498049 116.109916 16.7385854"></polygon>
                <path d="M120.092456,16.0230244 L120.092456,15.3776585 C119.893742,15.104 119.543965,14.9635122 119.187518,14.9635122 C118.700976,14.9635122 118.365496,15.2722927 118.365496,15.7000976 C118.365496,16.1352195 118.700976,16.444 119.187518,16.444 C119.543965,16.444 119.893742,16.3035122 120.092456,16.0230244 L120.092456,16.0230244 Z M120.092456,16.7386341 L120.092456,16.3527805 C119.825121,16.661561 119.44151,16.8230244 118.995951,16.8230244 C118.440788,16.8230244 117.844168,16.4366829 117.844168,15.7000976 C117.844168,14.9352195 118.43364,14.5844878 118.995951,14.5844878 C119.448182,14.5844878 119.825121,14.7318049 120.092456,15.0405854 L120.092456,14.4303415 C120.092456,13.981561 119.736009,13.721561 119.256139,13.721561 C118.858709,13.721561 118.536572,13.8620488 118.242074,14.1918049 L118.0019,13.8269268 C118.358348,13.4479024 118.783417,13.2654634 119.32476,13.2654634 C120.030507,13.2654634 120.606637,13.5883902 120.606637,14.4093659 L120.606637,16.7386341 L120.092456,16.7386341 Z" id="Fill-57" fill="#58595B" mask="url(#mask-4)"></path>
                <path d="M122.422995,17.8540976 L122.553089,17.5877561 C122.724641,17.7277561 122.916684,17.7911707 123.10158,17.7911707 C123.327934,17.7911707 123.5195,17.6858049 123.5195,17.4965366 C123.5195,17.3492195 123.437536,17.2506829 123.265984,17.2506829 C123.170201,17.2506829 123.067269,17.293122 123.005796,17.3701951 L122.779443,17.2365366 L122.930027,16.8087317 C122.039385,16.7316585 121.449912,15.9877561 121.449912,15.040439 C121.449912,14.0375122 122.114677,13.2653171 123.10158,13.2653171 C123.704396,13.2653171 124.06132,13.518 124.314836,13.8550732 L123.971731,14.1706829 C123.752526,13.8619024 123.471847,13.735561 123.128742,13.735561 C122.430143,13.735561 121.984107,14.2897073 121.984107,15.040439 C121.984107,15.7911707 122.430143,16.3526341 123.128742,16.3526341 C123.471847,16.3526341 123.752526,16.2121463 123.971731,15.9106829 L124.314836,16.233122 C124.081811,16.5492195 123.752526,16.780439 123.231674,16.815561 L123.122071,17.1101951 C123.190692,17.0540976 123.286475,17.033122 123.375587,17.033122 C123.636251,17.033122 123.827818,17.215561 123.827818,17.5033659 C123.827818,17.8472683 123.512829,18.0648293 123.114923,18.0648293 C122.820425,18.0648293 122.560237,17.9662927 122.422995,17.8540976" id="Fill-58" fill="#58595B" mask="url(#mask-4)"></path>
                <path d="M127.111282,16.0230244 L127.111282,15.3776585 C126.912568,15.104 126.562791,14.9635122 126.206344,14.9635122 C125.719802,14.9635122 125.383845,15.2722927 125.383845,15.7000976 C125.383845,16.1352195 125.719802,16.444 126.206344,16.444 C126.562791,16.444 126.912568,16.3035122 127.111282,16.0230244 L127.111282,16.0230244 Z M125.911845,12.206439 C125.72695,12.206439 125.583037,12.3883902 125.583037,12.8093659 L125.274243,12.8093659 C125.274243,12.2620488 125.507268,11.8693659 125.939008,11.8693659 C126.432697,11.8693659 126.453188,12.5147317 126.781997,12.5147317 C126.967369,12.5147317 127.111282,12.3322927 127.111282,11.9113171 L127.4196,11.9113171 C127.4196,12.4586341 127.186575,12.8518049 126.754835,12.8518049 C126.261622,12.8518049 126.240654,12.206439 125.911845,12.206439 L125.911845,12.206439 Z M127.111282,16.7386341 L127.111282,16.3527805 C126.843947,16.661561 126.460336,16.8230244 126.014777,16.8230244 C125.459614,16.8230244 124.862994,16.4366829 124.862994,15.7000976 C124.862994,14.9352195 125.452466,14.5844878 126.014777,14.5844878 C126.467008,14.5844878 126.843947,14.7318049 127.111282,15.0405854 L127.111282,14.4303415 C127.111282,13.981561 126.754835,13.721561 126.274965,13.721561 C125.877535,13.721561 125.555398,13.8620488 125.2609,14.1918049 L125.020726,13.8269268 C125.377174,13.4479024 125.802243,13.2654634 126.343586,13.2654634 C127.049809,13.2654634 127.625463,13.5883902 127.625463,14.4093659 L127.625463,16.7386341 L127.111282,16.7386341 Z" id="Fill-59" fill="#58595B" mask="url(#mask-4)"></path>
                <path d="M131.20333,15.0406341 C131.20333,14.3533171 130.812572,13.7357561 130.106825,13.7357561 C129.400601,13.7357561 129.009843,14.3533171 129.009843,15.0406341 C129.009843,15.7352683 129.400601,16.3523415 130.106825,16.3523415 C130.812572,16.3523415 131.20333,15.7352683 131.20333,15.0406341 M128.4685,15.0406341 C128.4685,14.0581951 129.098955,13.2655122 130.106825,13.2655122 C131.114218,13.2655122 131.744673,14.0581951 131.744673,15.0406341 C131.744673,16.0230732 131.114218,16.8230732 130.106825,16.8230732 C129.098955,16.8230732 128.4685,16.0230732 128.4685,15.0406341" id="Fill-60" fill="#58595B" mask="url(#mask-4)"></path>
                <path d="M27.1695076,11.9266829 L28.7339697,7.82960976 L30.3170166,11.9266829 L27.1695076,11.9266829 Z M29.9896375,3.634 L27.6427061,3.634 L22.075356,16.8047317 L25.2042801,16.8047317 L26.2779119,14.3657073 L31.2810455,14.3657073 L32.3913704,16.8047317 L35.5932043,16.8047317 L29.9896375,3.634 Z" id="Fill-61" fill="#333333" mask="url(#mask-4)"></path>
            </g>
        </g>
        <path d="M28.1162705,8.54450534 C27.3653371,16.639657 23.4131359,20.8693115 23.2148473,21.0751397 L23.2110775,21.0713699 C21.4332655,23.5058716 18.565997,25.0936885 15.321,25.0936885 C9.92347827,25.0936885 5.54831155,20.7185217 5.54831155,15.321 C5.54831155,9.92347827 9.92347827,5.5475576 15.321,5.5475576 C20.5926122,5.5475576 24.878059,9.72518966 25.0755937,14.9485491 C25.8770416,12.9159023 26.5563497,10.2816041 26.7018619,7.07732036 L22.6463696,3.02182806 C18.6172655,-1.00727602 12.0247345,-1.00727602 7.99563038,3.02182806 L3.02182806,7.99563038 C-1.00727602,12.0239805 -1.00727602,18.6172655 3.02182806,22.6463696 L7.99563038,27.6201719 C12.0247345,31.649276 18.6172655,31.649276 22.6463696,27.6201719 L27.6201719,22.6463696 C31.4728519,18.7936896 31.6319352,12.6022595 28.1162705,8.54450534" id="Fill-1" fill="url(#linearGradient-5)"></path>
    </g>
</svg>